<svg xmlns="http://www.w3.org/2000/svg" version="1.1"
  xmlns:xlink="http://www.w3.org/1999/xlink"
  xmlns:svgjs="http://svgjs.com/svgjs" width="1920" height="1080" preserveAspectRatio="none" viewBox="0 0 1920 1080">
  <g mask="url(&quot;#SvgjsMask1008&quot;)" fill="none">
    <rect width="1920" height="1080" x="0" y="0" fill="#0e2a47"></rect>
    <path d="M -524.8332451837218,902 C -396.83,803.4 -140.83,433 115.16675481627814,409 C 371.17,385 499.17,816.4 755.1667548162782,782 C 1011.17,747.6 1139.17,213.6 1395.1667548162782,237 C 1651.17,260.4 1930.2,898.8 2035.1667548162782,899 C 2140.13,899.2 1943.03,370.2 1920,238" stroke="rgba(51, 121, 194, 0.58)" stroke-width="2"></path>
    <path d="M -531.6739211247115,528 C -403.67,543.2 -147.67,656 108.32607887528852,604 C 364.33,552 492.33,279.8 748.3260788752885,268 C 1004.33,256.2 1132.33,568 1388.3260788752884,545 C 1644.33,522 1921.99,92.6 2028.3260788752884,153 C 2134.66,213.4 1941.67,708.2 1920,847" stroke="rgba(51, 121, 194, 0.58)" stroke-width="2"></path>
    <path d="M -660.7142493523754,272 C -532.71,334 -276.71,566.6 -20.714249352375447,582 C 235.29,597.4 363.29,308 619.2857506476246,349 C 875.29,390 1003.29,756.2 1259.2857506476246,787 C 1515.29,817.8 1767.14,520.6 1899.2857506476246,503 C 2031.43,485.4 1915.86,659.8 1920,699" stroke="rgba(51, 121, 194, 0.58)" stroke-width="2"></path>
    <path d="M -1269.3976185458641,494 C -1141.4,551.8 -885.4,858.6 -629.3976185458642,783 C -373.4,707.4 -245.4,130.4 10.602381454135752,116 C 266.6,101.6 394.6,666.2 650.6023814541358,711 C 906.6,755.8 1036.72,361.2 1290.6023814541359,340 C 1544.48,318.8 1794.12,552 1920,605" stroke="rgba(51, 121, 194, 0.58)" stroke-width="2"></path>
  </g>
  <defs>
    <mask id="SvgjsMask1008">
      <rect width="1920" height="1080" fill="#ffffff"></rect>
    </mask>
  </defs>
</svg>
