<svg xmlns="http://www.w3.org/2000/svg" version="1.1" xmlns:xlink="http://www.w3.org/1999/xlink" xmlns:svgjs="http://svgjs.com/svgjs" width="1920" height="1080" preserveAspectRatio="none" viewBox="0 0 1920 1080">
  <g mask="url(&quot;#SvgjsMask1104&quot;)" fill="none">
      <rect width="1920" height="1080" x="0" y="0" fill="#0e2a47"></rect>
      <path d="M1587 913L1998 1324" stroke-width="8" stroke="url(#SvgjsLinearGradient1105)" stroke-linecap="round" class="BottomRight"></path>
      <path d="M1007 386L1737 1116" stroke-width="6" stroke="url(#SvgjsLinearGradient1106)" stroke-linecap="round" class="TopLeft"></path>
      <path d="M97 781L-437 247" stroke-width="10" stroke="url(#SvgjsLinearGradient1106)" stroke-linecap="round" class="TopLeft"></path>
      <path d="M249 644L1007 1402" stroke-width="6" stroke="url(#SvgjsLinearGradient1106)" stroke-linecap="round" class="TopLeft"></path>
      <path d="M1248 538L1851 1141" stroke-width="6" stroke="url(#SvgjsLinearGradient1105)" stroke-linecap="round" class="BottomRight"></path>
      <path d="M289 843L-12 542" stroke-width="10" stroke="url(#SvgjsLinearGradient1106)" stroke-linecap="round" class="TopLeft"></path>
      <path d="M1442 886L2154 1598" stroke-width="8" stroke="url(#SvgjsLinearGradient1105)" stroke-linecap="round" class="BottomRight"></path>
      <path d="M1860 532L1197 -131" stroke-width="6" stroke="url(#SvgjsLinearGradient1106)" stroke-linecap="round" class="TopLeft"></path>
      <path d="M382 991L-269 340" stroke-width="6" stroke="url(#SvgjsLinearGradient1105)" stroke-linecap="round" class="BottomRight"></path>
      <path d="M982 1012L1644 1674" stroke-width="6" stroke="url(#SvgjsLinearGradient1105)" stroke-linecap="round" class="BottomRight"></path>
      <path d="M467 379L767 679" stroke-width="6" stroke="url(#SvgjsLinearGradient1105)" stroke-linecap="round" class="BottomRight"></path>
      <path d="M43 933L-295 595" stroke-width="10" stroke="url(#SvgjsLinearGradient1106)" stroke-linecap="round" class="TopLeft"></path>
      <path d="M1518 895L2257 1634" stroke-width="10" stroke="url(#SvgjsLinearGradient1106)" stroke-linecap="round" class="TopLeft"></path>
      <path d="M331 884L-163 390" stroke-width="8" stroke="url(#SvgjsLinearGradient1105)" stroke-linecap="round" class="BottomRight"></path>
      <path d="M974 977L1349 1352" stroke-width="8" stroke="url(#SvgjsLinearGradient1105)" stroke-linecap="round" class="BottomRight"></path>
      <path d="M1079 4L658 -417" stroke-width="8" stroke="url(#SvgjsLinearGradient1106)" stroke-linecap="round" class="TopLeft"></path>
      <path d="M173 991L643 1461" stroke-width="10" stroke="url(#SvgjsLinearGradient1106)" stroke-linecap="round" class="TopLeft"></path>
      <path d="M987 403L1426 842" stroke-width="6" stroke="url(#SvgjsLinearGradient1105)" stroke-linecap="round" class="BottomRight"></path>
      <path d="M438 904L835 1301" stroke-width="8" stroke="url(#SvgjsLinearGradient1106)" stroke-linecap="round" class="TopLeft"></path>
      <path d="M1395 664L2168 1437" stroke-width="6" stroke="url(#SvgjsLinearGradient1105)" stroke-linecap="round" class="BottomRight"></path>
      <path d="M587 755L1340 1508" stroke-width="6" stroke="url(#SvgjsLinearGradient1105)" stroke-linecap="round" class="BottomRight"></path>
      <path d="M1384 1047L932 595" stroke-width="10" stroke="url(#SvgjsLinearGradient1105)" stroke-linecap="round" class="BottomRight"></path>
      <path d="M1042 297L408 -337" stroke-width="6" stroke="url(#SvgjsLinearGradient1105)" stroke-linecap="round" class="BottomRight"></path>
      <path d="M188 507L877 1196" stroke-width="6" stroke="url(#SvgjsLinearGradient1105)" stroke-linecap="round" class="BottomRight"></path>
      <path d="M1891 187L1325 -379" stroke-width="10" stroke="url(#SvgjsLinearGradient1105)" stroke-linecap="round" class="BottomRight"></path>
      <path d="M123 52L-544 -615" stroke-width="8" stroke="url(#SvgjsLinearGradient1105)" stroke-linecap="round" class="BottomRight"></path>
      <path d="M1724 417L2341 1034" stroke-width="6" stroke="url(#SvgjsLinearGradient1106)" stroke-linecap="round" class="TopLeft"></path>
      <path d="M1518 852L1149 483" stroke-width="6" stroke="url(#SvgjsLinearGradient1106)" stroke-linecap="round" class="TopLeft"></path>
      <path d="M949 10L239 -700" stroke-width="10" stroke="url(#SvgjsLinearGradient1106)" stroke-linecap="round" class="TopLeft"></path>
      <path d="M1734 950L1385 601" stroke-width="8" stroke="url(#SvgjsLinearGradient1105)" stroke-linecap="round" class="BottomRight"></path>
      <path d="M1118 648L1431 961" stroke-width="8" stroke="url(#SvgjsLinearGradient1106)" stroke-linecap="round" class="TopLeft"></path>
      <path d="M534 282L915 663" stroke-width="6" stroke="url(#SvgjsLinearGradient1106)" stroke-linecap="round" class="TopLeft"></path>
      <path d="M523 303L936 716" stroke-width="10" stroke="url(#SvgjsLinearGradient1105)" stroke-linecap="round" class="BottomRight"></path>
      <path d="M1038 883L1609 1454" stroke-width="6" stroke="url(#SvgjsLinearGradient1105)" stroke-linecap="round" class="BottomRight"></path>
      <path d="M742 1012L1387 1657" stroke-width="8" stroke="url(#SvgjsLinearGradient1106)" stroke-linecap="round" class="TopLeft"></path>
      <path d="M1787 320L1025 -442" stroke-width="10" stroke="url(#SvgjsLinearGradient1105)" stroke-linecap="round" class="BottomRight"></path>
      <path d="M372 396L-240 -216" stroke-width="8" stroke="url(#SvgjsLinearGradient1105)" stroke-linecap="round" class="BottomRight"></path>
      <path d="M36 399L-329 34" stroke-width="8" stroke="url(#SvgjsLinearGradient1105)" stroke-linecap="round" class="BottomRight"></path>
      <path d="M967 136L388 -443" stroke-width="6" stroke="url(#SvgjsLinearGradient1105)" stroke-linecap="round" class="BottomRight"></path>
      <path d="M1578 289L2182 893" stroke-width="8" stroke="url(#SvgjsLinearGradient1106)" stroke-linecap="round" class="TopLeft"></path>
      <path d="M1457 279L2165 987" stroke-width="6" stroke="url(#SvgjsLinearGradient1106)" stroke-linecap="round" class="TopLeft"></path>
      <path d="M1005 338L411 -256" stroke-width="6" stroke="url(#SvgjsLinearGradient1106)" stroke-linecap="round" class="TopLeft"></path>
      <path d="M276 16L944 684" stroke-width="10" stroke="url(#SvgjsLinearGradient1106)" stroke-linecap="round" class="TopLeft"></path>
      <path d="M760 834L1290 1364" stroke-width="10" stroke="url(#SvgjsLinearGradient1105)" stroke-linecap="round" class="BottomRight"></path>
      <path d="M1232 1019L940 727" stroke-width="10" stroke="url(#SvgjsLinearGradient1106)" stroke-linecap="round" class="TopLeft"></path>
      <path d="M1594 373L2323 1102" stroke-width="8" stroke="url(#SvgjsLinearGradient1106)" stroke-linecap="round" class="TopLeft"></path>
      <path d="M1006 20L1469 483" stroke-width="6" stroke="url(#SvgjsLinearGradient1106)" stroke-linecap="round" class="TopLeft"></path>
      <path d="M148 520L728 1100" stroke-width="8" stroke="url(#SvgjsLinearGradient1105)" stroke-linecap="round" class="BottomRight"></path>
      <path d="M19 149L461 591" stroke-width="8" stroke="url(#SvgjsLinearGradient1105)" stroke-linecap="round" class="BottomRight"></path>
      <path d="M1497 586L1906 995" stroke-width="6" stroke="url(#SvgjsLinearGradient1106)" stroke-linecap="round" class="TopLeft"></path>
      <path d="M301 761L811 1271" stroke-width="8" stroke="url(#SvgjsLinearGradient1105)" stroke-linecap="round" class="BottomRight"></path>
      <path d="M943 233L471 -239" stroke-width="8" stroke="url(#SvgjsLinearGradient1105)" stroke-linecap="round" class="BottomRight"></path>
      <path d="M334 232L1017 915" stroke-width="8" stroke="url(#SvgjsLinearGradient1105)" stroke-linecap="round" class="BottomRight"></path>
      <path d="M425 805L1135 1515" stroke-width="10" stroke="url(#SvgjsLinearGradient1105)" stroke-linecap="round" class="BottomRight"></path>
      <path d="M613 200L131 -282" stroke-width="8" stroke="url(#SvgjsLinearGradient1105)" stroke-linecap="round" class="BottomRight"></path>
      <path d="M1652 927L1923 1198" stroke-width="6" stroke="url(#SvgjsLinearGradient1106)" stroke-linecap="round" class="TopLeft"></path>
  </g>
  <defs>
      <mask id="SvgjsMask1104">
          <rect width="1920" height="1080" fill="#ffffff"></rect>
      </mask>
      <linearGradient x1="0%" y1="0%" x2="100%" y2="100%" id="SvgjsLinearGradient1105">
          <stop stop-color="rgba(28, 83, 142, 0)" offset="0"></stop>
          <stop stop-color="#1c538e" offset="1"></stop>
      </linearGradient>
      <linearGradient x1="100%" y1="100%" x2="0%" y2="0%" id="SvgjsLinearGradient1106">
          <stop stop-color="rgba(28, 83, 142, 0)" offset="0"></stop>
          <stop stop-color="#1c538e" offset="1"></stop>
      </linearGradient>
  </defs>
</svg>